<svg width="135" height="28" viewBox="0 0 135 28" fill="none" xmlns="http://www.w3.org/2000/svg">
<path d="M36.634 7.436C37.954 7.436 39.112 7.694 40.108 8.21C41.116 8.726 41.89 9.464 42.43 10.424C42.982 11.372 43.258 12.476 43.258 13.736C43.258 14.996 42.982 16.1 42.43 17.048C41.89 17.984 41.116 18.71 40.108 19.226C39.112 19.742 37.954 20 36.634 20H32.242V7.436H36.634ZM36.544 17.858C37.864 17.858 38.884 17.498 39.604 16.778C40.324 16.058 40.684 15.044 40.684 13.736C40.684 12.428 40.324 11.408 39.604 10.676C38.884 9.932 37.864 9.56 36.544 9.56H34.762V17.858H36.544ZM44.6763 14.978C44.6763 13.97 44.8743 13.076 45.2703 12.296C45.6783 11.516 46.2243 10.916 46.9083 10.496C47.6043 10.076 48.3783 9.866 49.2303 9.866C49.9743 9.866 50.6223 10.016 51.1743 10.316C51.7383 10.616 52.1883 10.994 52.5243 11.45V10.028H55.0623V20H52.5243V18.542C52.2003 19.01 51.7503 19.4 51.1743 19.712C50.6103 20.012 49.9563 20.162 49.2123 20.162C48.3723 20.162 47.6043 19.946 46.9083 19.514C46.2243 19.082 45.6783 18.476 45.2703 17.696C44.8743 16.904 44.6763 15.998 44.6763 14.978ZM52.5243 15.014C52.5243 14.402 52.4043 13.88 52.1643 13.448C51.9243 13.004 51.6003 12.668 51.1923 12.44C50.7843 12.2 50.3463 12.08 49.8783 12.08C49.4103 12.08 48.9783 12.194 48.5823 12.422C48.1863 12.65 47.8623 12.986 47.6103 13.43C47.3703 13.862 47.2503 14.378 47.2503 14.978C47.2503 15.578 47.3703 16.106 47.6103 16.562C47.8623 17.006 48.1863 17.348 48.5823 17.588C48.9903 17.828 49.4223 17.948 49.8783 17.948C50.3463 17.948 50.7843 17.834 51.1923 17.606C51.6003 17.366 51.9243 17.03 52.1643 16.598C52.4043 16.154 52.5243 15.626 52.5243 15.014ZM61.5196 20.162C60.7036 20.162 59.9716 20.018 59.3236 19.73C58.6756 19.43 58.1596 19.028 57.7756 18.524C57.4036 18.02 57.1996 17.462 57.1636 16.85H59.7016C59.7496 17.234 59.9356 17.552 60.2596 17.804C60.5956 18.056 61.0096 18.182 61.5016 18.182C61.9816 18.182 62.3536 18.086 62.6176 17.894C62.8936 17.702 63.0316 17.456 63.0316 17.156C63.0316 16.832 62.8636 16.592 62.5276 16.436C62.2036 16.268 61.6816 16.088 60.9616 15.896C60.2176 15.716 59.6056 15.53 59.1256 15.338C58.6576 15.146 58.2496 14.852 57.9016 14.456C57.5656 14.06 57.3976 13.526 57.3976 12.854C57.3976 12.302 57.5536 11.798 57.8656 11.342C58.1896 10.886 58.6456 10.526 59.2336 10.262C59.8336 9.998 60.5356 9.866 61.3396 9.866C62.5276 9.866 63.4756 10.166 64.1836 10.766C64.8916 11.354 65.2816 12.152 65.3536 13.16H62.9416C62.9056 12.764 62.7376 12.452 62.4376 12.224C62.1496 11.984 61.7596 11.864 61.2676 11.864C60.8116 11.864 60.4576 11.948 60.2056 12.116C59.9656 12.284 59.8456 12.518 59.8456 12.818C59.8456 13.154 60.0136 13.412 60.3496 13.592C60.6856 13.76 61.2076 13.934 61.9156 14.114C62.6356 14.294 63.2296 14.48 63.6976 14.672C64.1656 14.864 64.5676 15.164 64.9036 15.572C65.2516 15.968 65.4316 16.496 65.4436 17.156C65.4436 17.732 65.2816 18.248 64.9576 18.704C64.6456 19.16 64.1896 19.52 63.5896 19.784C63.0016 20.036 62.3116 20.162 61.5196 20.162ZM73.3082 9.884C74.0642 9.884 74.7362 10.052 75.3242 10.388C75.9122 10.712 76.3682 11.198 76.6922 11.846C77.0282 12.482 77.1962 13.25 77.1962 14.15V20H74.6762V14.492C74.6762 13.7 74.4782 13.094 74.0822 12.674C73.6862 12.242 73.1462 12.026 72.4622 12.026C71.7662 12.026 71.2142 12.242 70.8062 12.674C70.4102 13.094 70.2122 13.7 70.2122 14.492V20H67.6922V6.68H70.2122V11.27C70.5362 10.838 70.9682 10.502 71.5082 10.262C72.0482 10.01 72.6482 9.884 73.3082 9.884ZM82.2925 11.486C82.6165 11.006 83.0605 10.616 83.6245 10.316C84.2005 10.016 84.8545 9.866 85.5865 9.866C86.4385 9.866 87.2065 10.076 87.8905 10.496C88.5865 10.916 89.1325 11.516 89.5285 12.296C89.9365 13.064 90.1405 13.958 90.1405 14.978C90.1405 15.998 89.9365 16.904 89.5285 17.696C89.1325 18.476 88.5865 19.082 87.8905 19.514C87.2065 19.946 86.4385 20.162 85.5865 20.162C84.8425 20.162 84.1885 20.018 83.6245 19.73C83.0725 19.43 82.6285 19.046 82.2925 18.578V20H79.7725V6.68H82.2925V11.486ZM87.5665 14.978C87.5665 14.378 87.4405 13.862 87.1885 13.43C86.9485 12.986 86.6245 12.65 86.2165 12.422C85.8205 12.194 85.3885 12.08 84.9205 12.08C84.4645 12.08 84.0325 12.2 83.6245 12.44C83.2285 12.668 82.9045 13.004 82.6525 13.448C82.4125 13.892 82.2925 14.414 82.2925 15.014C82.2925 15.614 82.4125 16.136 82.6525 16.58C82.9045 17.024 83.2285 17.366 83.6245 17.606C84.0325 17.834 84.4645 17.948 84.9205 17.948C85.3885 17.948 85.8205 17.828 86.2165 17.588C86.6245 17.348 86.9485 17.006 87.1885 16.562C87.4405 16.118 87.5665 15.59 87.5665 14.978ZM96.5798 20.162C95.6198 20.162 94.7558 19.952 93.9878 19.532C93.2198 19.1 92.6138 18.494 92.1698 17.714C91.7378 16.934 91.5218 16.034 91.5218 15.014C91.5218 13.994 91.7438 13.094 92.1878 12.314C92.6438 11.534 93.2618 10.934 94.0418 10.514C94.8218 10.082 95.6918 9.866 96.6518 9.866C97.6118 9.866 98.4818 10.082 99.2618 10.514C100.042 10.934 100.654 11.534 101.098 12.314C101.554 13.094 101.782 13.994 101.782 15.014C101.782 16.034 101.548 16.934 101.08 17.714C100.624 18.494 99.9998 19.1 99.2078 19.532C98.4278 19.952 97.5518 20.162 96.5798 20.162ZM96.5798 17.966C97.0358 17.966 97.4618 17.858 97.8578 17.642C98.2658 17.414 98.5898 17.078 98.8298 16.634C99.0698 16.19 99.1898 15.65 99.1898 15.014C99.1898 14.066 98.9378 13.34 98.4338 12.836C97.9418 12.32 97.3358 12.062 96.6158 12.062C95.8958 12.062 95.2898 12.32 94.7978 12.836C94.3178 13.34 94.0778 14.066 94.0778 15.014C94.0778 15.962 94.3118 16.694 94.7798 17.21C95.2598 17.714 95.8598 17.966 96.5798 17.966ZM103.162 14.978C103.162 13.97 103.36 13.076 103.756 12.296C104.164 11.516 104.71 10.916 105.394 10.496C106.09 10.076 106.864 9.866 107.716 9.866C108.46 9.866 109.108 10.016 109.66 10.316C110.224 10.616 110.674 10.994 111.01 11.45V10.028H113.548V20H111.01V18.542C110.686 19.01 110.236 19.4 109.66 19.712C109.096 20.012 108.442 20.162 107.698 20.162C106.858 20.162 106.09 19.946 105.394 19.514C104.71 19.082 104.164 18.476 103.756 17.696C103.36 16.904 103.162 15.998 103.162 14.978ZM111.01 15.014C111.01 14.402 110.89 13.88 110.65 13.448C110.41 13.004 110.086 12.668 109.678 12.44C109.27 12.2 108.832 12.08 108.364 12.08C107.896 12.08 107.464 12.194 107.068 12.422C106.672 12.65 106.348 12.986 106.096 13.43C105.856 13.862 105.736 14.378 105.736 14.978C105.736 15.578 105.856 16.106 106.096 16.562C106.348 17.006 106.672 17.348 107.068 17.588C107.476 17.828 107.908 17.948 108.364 17.948C108.832 17.948 109.27 17.834 109.678 17.606C110.086 17.366 110.41 17.03 110.65 16.598C110.89 16.154 111.01 15.626 111.01 15.014ZM118.71 11.576C119.034 11.048 119.454 10.634 119.97 10.334C120.498 10.034 121.098 9.884 121.77 9.884V12.53H121.104C120.312 12.53 119.712 12.716 119.304 13.088C118.908 13.46 118.71 14.108 118.71 15.032V20H116.19V10.028H118.71V11.576ZM122.999 14.978C122.999 13.97 123.197 13.076 123.593 12.296C124.001 11.516 124.553 10.916 125.249 10.496C125.945 10.076 126.719 9.866 127.571 9.866C128.219 9.866 128.837 10.01 129.425 10.298C130.013 10.574 130.481 10.946 130.829 11.414V6.68H133.385V20H130.829V18.524C130.517 19.016 130.079 19.412 129.515 19.712C128.951 20.012 128.297 20.162 127.553 20.162C126.713 20.162 125.945 19.946 125.249 19.514C124.553 19.082 124.001 18.476 123.593 17.696C123.197 16.904 122.999 15.998 122.999 14.978ZM130.847 15.014C130.847 14.402 130.727 13.88 130.487 13.448C130.247 13.004 129.923 12.668 129.515 12.44C129.107 12.2 128.669 12.08 128.201 12.08C127.733 12.08 127.301 12.194 126.905 12.422C126.509 12.65 126.185 12.986 125.933 13.43C125.693 13.862 125.573 14.378 125.573 14.978C125.573 15.578 125.693 16.106 125.933 16.562C126.185 17.006 126.509 17.348 126.905 17.588C127.313 17.828 127.745 17.948 128.201 17.948C128.669 17.948 129.107 17.834 129.515 17.606C129.923 17.366 130.247 17.03 130.487 16.598C130.727 16.154 130.847 15.626 130.847 15.014Z" fill="black"/>
<path d="M14.0002 26.4014C13.2186 26.4014 12.4252 26.2264 11.8069 25.8648L5.39025 22.1664C2.77692 20.4048 2.61359 20.1364 2.61359 17.3714V10.6281C2.61359 7.86311 2.76525 7.59477 5.33192 5.85644L11.7952 2.12311C13.0202 1.41144 14.9452 1.41144 16.1702 2.12311L22.6102 5.83311C25.2235 7.59477 25.3869 7.86311 25.3869 10.6281V17.3598C25.3869 20.1248 25.2352 20.3931 22.6686 22.1314L16.2052 25.8648C15.5752 26.2264 14.7819 26.4014 14.0002 26.4014ZM14.0002 3.34811C13.5102 3.34811 13.0319 3.44144 12.6936 3.63977L6.27692 7.34977C4.37525 8.63311 4.37525 8.63311 4.37525 10.6281V17.3598C4.37525 19.3548 4.37525 19.3548 6.32359 20.6731L12.6936 24.3481C13.3819 24.7448 14.6302 24.7448 15.3186 24.3481L21.7352 20.6381C23.6252 19.3548 23.6252 19.3548 23.6252 17.3598V10.6281C23.6252 8.63311 23.6252 8.63311 21.6769 7.31477L15.3069 3.63977C14.9686 3.44144 14.4902 3.34811 14.0002 3.34811Z" fill="black"/>
<path d="M14 18.375C11.585 18.375 9.625 16.415 9.625 14C9.625 11.585 11.585 9.625 14 9.625C16.415 9.625 18.375 11.585 18.375 14C18.375 16.415 16.415 18.375 14 18.375ZM14 11.375C12.5533 11.375 11.375 12.5533 11.375 14C11.375 15.4467 12.5533 16.625 14 16.625C15.4467 16.625 16.625 15.4467 16.625 14C16.625 12.5533 15.4467 11.375 14 11.375Z" fill="black"/>
</svg>
